<svg width="700" height="500" viewBox="0 0 700 500" fill="none" xmlns="http://www.w3.org/2000/svg">
  <defs>
    <linearGradient id="bg" x1="60" y1="30" x2="640" y2="470" gradientUnits="userSpaceOnUse">
      <stop stop-color="#F9EDE0"/>
      <stop offset="0.46" stop-color="#F0D9C5"/>
      <stop offset="1" stop-color="#E8C9B0"/>
    </linearGradient>
    <linearGradient id="card" x1="150" y1="70" x2="520" y2="430" gradientUnits="userSpaceOnUse">
      <stop stop-color="#FFFDFB" stop-opacity="0.95"/>
      <stop offset="1" stop-color="#FFF7EF" stop-opacity="0.92"/>
    </linearGradient>
    <linearGradient id="gold" x1="224" y1="118" x2="476" y2="118" gradientUnits="userSpaceOnUse">
      <stop stop-color="#C9849A"/>
      <stop offset="0.5" stop-color="#D4A866"/>
      <stop offset="1" stop-color="#C9849A"/>
    </linearGradient>
    <filter id="shadow" x="118" y="62" width="464" height="392" filterUnits="userSpaceOnUse" color-interpolation-filters="sRGB">
      <feDropShadow dx="0" dy="22" stdDeviation="26" flood-color="#8A5A32" flood-opacity="0.18"/>
    </filter>
  </defs>
  <rect width="700" height="500" rx="28" fill="url(#bg)"/>
  <circle cx="110" cy="84" r="90" fill="#E0A882" fill-opacity="0.22"/>
  <circle cx="608" cy="412" r="82" fill="#C9849A" fill-opacity="0.16"/>
  <g filter="url(#shadow)">
    <rect x="150" y="84" width="400" height="348" rx="28" fill="#FFF9F3" fill-opacity="0.9"/>
    <rect x="150.5" y="84.5" width="399" height="347" rx="27.5" stroke="#FFFFFF" stroke-opacity="0.72"/>
    <rect x="224" y="84" width="252" height="3" rx="1.5" fill="url(#gold)"/>
    <text x="350" y="146" text-anchor="middle" fill="#B07D4A" font-family="Georgia, serif" font-size="12" letter-spacing="5">POZIVNICA</text>
    <text x="350" y="230" text-anchor="middle" fill="#5A3520" font-family="Georgia, serif" font-size="46">Sanja &amp; Marko</text>
    <text x="350" y="272" text-anchor="middle" fill="#9A6840" font-family="Georgia, serif" font-size="18" letter-spacing="4">22. AUGUST 2026</text>
    <line x1="284" y1="296" x2="416" y2="296" stroke="#C9A070" stroke-opacity="0.7"/>
    <rect x="206" y="330" width="74" height="74" rx="16" fill="#5A3520"/>
    <rect x="294" y="330" width="74" height="74" rx="16" fill="#5A3520"/>
    <rect x="382" y="330" width="74" height="74" rx="16" fill="#5A3520"/>
    <text x="243" y="365" text-anchor="middle" fill="#F5DFC0" font-family="Georgia, serif" font-size="30">12</text>
    <text x="331" y="365" text-anchor="middle" fill="#F5DFC0" font-family="Georgia, serif" font-size="30">08</text>
    <text x="419" y="365" text-anchor="middle" fill="#F5DFC0" font-family="Georgia, serif" font-size="30">44</text>
    <text x="243" y="388" text-anchor="middle" fill="#C9A070" font-family="Arial, sans-serif" font-size="9" letter-spacing="2">DANA</text>
    <text x="331" y="388" text-anchor="middle" fill="#C9A070" font-family="Arial, sans-serif" font-size="9" letter-spacing="2">SATI</text>
    <text x="419" y="388" text-anchor="middle" fill="#C9A070" font-family="Arial, sans-serif" font-size="9" letter-spacing="2">MIN</text>
  </g>
</svg>
